<?xml version="1.0" encoding="UTF-8"?>
<svg id="Layer_1" xmlns="http://www.w3.org/2000/svg" version="1.1" viewBox="0 0 217.24 156.19">
  <!-- Generator: Adobe Illustrator 30.3.0, SVG Export Plug-In . SVG Version: 2.1.3 Build 182)  -->
  <defs>
    <style>
      .st0 {
        fill: #5387f9;
      }

      .st1 {
        fill: #a5b965;
      }

      .st2 {
        fill: #92b1ff;
      }

      .st3 {
        fill: #739947;
      }

      .st4 {
        fill: #35598e;
      }
    </style>
  </defs>
  <path class="st2" d="M134.55,18.93c-.14-1.36-1.03-2.48-2.5-2.5-.49,0-.93.08-1.35.22.01-.1.03-.21.04-.31.24-1.62-1.09-3.9-3.08-3.08-.25.1-.48.21-.71.33.29-1.67-1.64-3.04-3.19-2.65-1.08.28-2.17.55-3.25.83-.34.09-.68.17-1.02.26.07-.43.15-.85.26-1.27.31-1.18.79-2.25,1.42-3.3,1.14-1.9-.74-4.21-2.82-3.67-.69.18-1.35.49-1.95.89-.06.04-.48.33-.86.59-.22-.46-.56-.92-.83-1.28-1.16-1.5-3.07-2.04-4.84-1.29-.84.35-1.55.93-2.13,1.63-.67-.72-1.33-1.45-1.99-2.17-.68-.74-2.18-1.02-3.03-.39-.45.33-.84.71-1.18,1.12-.02-.02-.05-.04-.07-.06-.86-2.24-3.75-2.56-5.27-.78-1.25,1.46-.59,3.29-.65,5.01,0,.05,0,.09,0,.14-.52-.29-1.14-.39-1.79-.19-1.73.53-2.67,2.12-2.49,3.81-.12.24-.25.47-.39.69-.2-.15-.41-.28-.54-.36-2.19-1.32-5.15-.54-6.35,1.72-1.19,2.23-.34,4.68,1.89,5.79.28.14-1.15.88-.84.98-.29.1.39-.19.11-.19,0,.01,0-.01,0,0-.22,0,.42.09.19.13-1.81.32-2.83,2.13-2.14,3.47-.05.06-.33.17-.38.23-.54.64-.06,1.35-.3,2.16-.26.86-.24,1.62-.12,2.38-.22-.03-.44-.08-.66-.15-1.54-.42-3.19.78-3.16,2.41.03,1.82,1.13,3.05,2.67,3.71-.06.08-.11.16-.16.25-1.25,2.24.68,4.72,2.93,5.09.03,0,.09.02.15.03-.34.65-.6,1.54-.7,2-.1.46-.12.94-.08,1.42-.93.65-1.56,1.69-1.58,2.84-.04,2.2,2.1,3.86,4.19,3.16,1.43-.48,2.41-1.8,3.58-2.74.07.09.15.18.24.27,1.51,1.46,3.53,1.82,5.54,1.37.02,0,.04-.01.07-.02-.04.28-.08.56-.1.85-.17,2.14,2.87,3.33,4.27,1.77.41-.46.82-.58,1.27-.38.44.2.84.69,1.3.94.77.42,1.69.57,2.54.38,1.36-.29,2.41-1.23,3.08-2.43.3-.54.47-1.14.71-1.69,0-.01.03-.06.06-.12.07.02.15.05.22.07.27.09.54.18.8.28.6.23,1.15.52,1.68.87,1.22.82,2.39,1.28,3.89,1.12,1.44-.15,2.85-.6,4.11-1.33.57-.33,1.09-.73,1.59-1.15.24-.2.47-.41.69-.64,0,0,0,0,0,0,.64.19,1.27.37,2.01.33,1.23-.05,2.55-.48,3.49-1.3.45-.4.75-.83.92-1.28,1.75-.58,2.72-2.46,3.07-4.15.5-2.43-.08-4.76-1.41-6.66.21-.86.77-1.64,1.64-2.1,1.28-.67,1.43-2.24.9-3.42-.42-.92.74-2.6,1.12-3.36.8-1.61,1.49-3.31,1.3-5.14ZM117.13,18.47s0-.05,0-.08c.03.03.05.06.08.08-.03,0-.06,0-.09,0ZM91.88,45.01c.34.03.09.23,0,0h0ZM115.77,5.8c.1.04.06.12,0,0h0ZM114.95,5.69s-.04.03-.04.03c0-.02.01-.02.04-.03ZM110.86,7.13c-.1-.1-.14-.34,0,0h0ZM88.35,14.66c-.06-.03-.02-.03,0,0h0ZM87.76,15.42c-.08-.08-.11-.14,0,0h0ZM103.38,46.19s-.02.03-.02.03c0-.01,0-.02.02-.03ZM108.69,46.47c.04-.07.07-.13.07-.12.05.05,0,.09-.07.12ZM113.33,43.44c.24.02.47.02.71.05,0,.15,0,.29.01.42-.1-.08-.19-.15-.29-.22-.14-.09-.29-.17-.43-.26Z"/>
  <g>
    <path class="st1" d="M147.61,66.24c-1.55-1.94-3.95-2.87-6.3-3.42-2.55-.6-5.07-1.09-7.52-2.04-1.16-.45-2.28-1-3.37-1.59-1.18-.64-2.31-1.42-3.64-1.7-2.92-.61-6.23.61-8.67,2.16-1.13.75-1.33,1.96-.99,2.96-.03.64.19,1.28.7,1.79.09.1.2.18.32.25-.64.78-.76,2-.34,2.99,2.06,4.87,5.49,10.28,11.59,9.67,2.88-.28,5.39-1.63,7.86-3.04,2.09-1.2,4.54-2.66,7.02-1.93,1.83.53,3.02-.93,3.08-2.4,1.03-.82,1.29-2.43.27-3.71Z"/>
    <path class="st1" d="M91.24,52.65c-1.41-.4-2.97-.4-4.42-.5-1.53-.1-3.05-.18-4.58-.18-3.09,0-6.22.34-9.16,1.32-.96.32-1.55,1.03-1.73,1.86-1.82-.85-3.97.65-3.51,2.86,1.13,5.42,3.84,9.87,7.27,14.14,1.59,1.98,3.45,3.53,6,4.07,2.38.5,5.38.84,7.74.13,2.56-.77,4.57-2.76,6.45-4.57,1.87-1.81,4.13-3.76,4.33-6.54.18-2.56-1.31-5.28-2.64-7.37-1.39-2.18-3.14-4.47-5.74-5.21Z"/>
  </g>
  <g>
    <path class="st0" d="M150.11,73.24c-.05-.07-.04-.16-.07-.24-.18-.52-.35-1.05-.56-1.56-.11-.26-.36-.48-.42-.75-.14-.59-.19-1.19-.28-1.78,0-.06,0-.13-.02-.18-.24-.44-.18-.93-.21-1.4-.15-.3-.3-.6-.45-.9-.16-.32-.3-.66-.48-.97-.2-.34-.53-.61-.67-.97-.3-.76-.96-1.19-1.54-1.62-1.05-.77-2.27-1.22-3.54-1.54-.75-.19-1.51-.35-2.27-.51-1.18-.25-2.36-.55-3.55-.72-.81-.12-1.6-.32-2.39-.51-1.04-.25-1.7-1.08-2.55-1.61-.46-.29-.83-.7-1.32-.97-.93-.52-1.95-.8-2.94-1.09-1.52-.44-3.05-.08-4.55.21-.62.12-1.2.48-1.82.6-.87.17-1.56.67-2.28,1.09-.38.22-.73.51-1.08.78-.44.34-.91.66-1.28,1.07-.72.8-1.64,1.31-2.53,1.87-.59.38-1.24.67-1.86,1-.49.26-.97.54-1.47.78-.13.06-.32.2-.45-.02,0-.85,0-1.71,0-2.56,0-.24.01-.49.01-.73,0-.5,0-1-.01-1.49h0c.05-.24.13-.47.13-.71,0-.58-.03-1.17-.06-1.75-.03-.5-.09-1-.13-1.5,0-.02,0-.04,0-.06v-.47c-.01-.39.31-.78,0-1.16.05-.14.13-.25.13-.37.01-.83.02-1.67,0-2.5,0-.56-.05-1.13-.06-1.69,0-.34,0-.68,0-1.02-.02,0-.03,0-.05,0,.06-.16.11-.31.16-.46.25.13.52.26.78.39.31.15.62.33.95.44.38.13.72,0,.99-.3h0c.25-.13.5-.25.75-.37.3-.1.59-.22.63-.56.23-.13.44-.24.64-.35.07.13.15.26.21.39.36.71.83,1.31,1.54,1.71.48.27.93.59,1.4.88.48.3.98.53,1.57.39.42-.1.83-.27,1.25-.36.41-.08.83-.08,1.24-.14.22-.03.46-.06.66-.15.49-.22.55-.69.58-1.16.03.01.07.02.1.03.12-.37.25-.74.39-1.16.15.1.28.18.4.28.25.21.47.45.73.65.27.2.59.22.92.22.51,0,1.23-.4,1.47-.84.06-.11.18-.19.29-.27.34-.26.72-.47,1.01-.78.23-.25.39-.59.5-.92.07-.2-.05-.46-.04-.7.02-.4.16-.81.12-1.2-.06-.62-.21-1.23-.35-1.84-.06-.27-.2-.53-.31-.79l-.07-.23,1.16.24c.18-.1.35-.15.53-.17.56-.06.98-.32,1.19-.85.11-.28.18-.58.26-.88.05-.25.11-.5.14-.75.09-.65-.3-1.2-.44-1.8,0-.02,0-.04-.01-.07-.2-.63-.41-1.25-.6-1.88-.13-.44-.24-.89-.36-1.34.03-.04.05-.09.08-.13.02,0,.05-.01.07-.02.05,0,.1,0,.14,0,.41.17.59.11.9-.28h0c.3-.06.64-.07.75-.44h0c.15-.08.29-.15.44-.23.03-.02.05-.05.08-.07.07-.08.14-.15.22-.23h0c.03-.12.07-.23.09-.35-.01.12-.06.23-.09.34.08-.08.18-.14.22-.23.18-.41.35-.83.51-1.25.09-.25.16-.5.23-.76,0-.28,0-.56.01-.84.04-.76-.14-1.49-.4-2.18-.18-.47-.09-.91-.18-1.3.3-.24.53-.49.82-.64.43-.23.69-.58.87-1,.16-.36.25-.74.38-1.11.16-.46.36-.91.5-1.38.11-.36.2-.75.19-1.12,0-.4-.07-.8.03-1.21.05-.21.03-.5-.08-.68-.37-.66-.64-1.4-1.33-1.82-.04-.02-.07-.07-.1-.11-.23-.26-.46-.53-.83-.58-.28-.04-.56-.05-.84-.05-.86.02-1.68.2-2.36.75-.53.43-.98.96-1.58,1.55-.25.03-.54-.24-.9-.43.07-.2.13-.38.19-.55.2-.59.45-1.17.37-1.8-.04-.29-.18-.57-.21-.86-.1-.79-.48-1.45-.91-2.07-.32-.46-.74-.87-1.16-1.25-.47-.43-.96-.86-1.63-.94-.69-.08-1.35-.05-1.8.6-.28.4-.57.8-.86,1.2-.03,0-.05.01-.08.02.02-.54-.39-.98-.26-1.55.11-.49.36-.89.75-1.15.29-.06.56-.1.82-.16.36-.07.53-.28.56-.63.05-.56-.15-1.04-.44-1.5q.3-.41,0-.83c-.03-.1-.05-.2-.08-.3,0-.13.03-.27-.02-.37-.12-.27-.27-.52-.42-.77-.47-.75-1.21-1.1-2.02-1.32-.05,0-.1,0-.15,0-.92-.05-1.73.36-2.57.64-.47.16-.87.52-1.39.55-.03-.05-.06-.09-.09-.14-.12-.11-.23-.24-.37-.33-.47-.35-.94-.68-1.42-1.02-.59-.31-1.16-.65-1.77-.91-.37-.16-.79-.25-1.19-.26-.57-.01-1.15.04-1.71.14-.44.08-.91.15-1.23.53-.1.12-.25.19-.38.29-1.23,1.67-1.77,3.57-1.64,5.67-.04,0-.08,0-.12.01-.28-.39-.57-.78-.81-1.11-.33-.34-.6-.61-.84-.86v-1.4c-.19-.21-.4-.43-.6-.65-.1-.27-.21-.56-.42-.71-.42-.29-.89-.5-1.34-.74-.45-.24-.94-.43-1.37-.71-.83-.54-1.54-1.22-2.59-1.4-.57-.1-1.12-.14-1.68-.11-.21.01-.44.08-.63.18-.75.42-1.33,1.02-1.61,1.83-.2.56-.32,1.16-.4,1.76-.05.42.04.86.05,1.28,0,.07-.07.15-.11.22-.2-.04-.38-.12-.56-.12-.69-.01-1.38-.05-2.08.1-.45.1-.87.2-1.21.49-.28.24-.54.52-.74.83-.36.53-.69,1.09-.98,1.66-.22.43-.36.91-.55,1.42-.88-.11-1.76-.22-2.72-.33-.43.35-.96.73-1.42,1.17-.56.53-.77,1.26-.98,1.98-.03.11-.07.21-.09.32-.15.74-.38,1.48-.41,2.22-.03.75.17,1.51.64,2.14.3.39.63.76,1.1.96.25.1.5.2.77.31.02.19.04.36.06.58-1.05.01-2.06-.3-3.07.25-.25.57-.49,1.26-.85,1.87-.27.46-.33.95-.42,1.44-.14.84-.27,1.68-.44,2.52-.07.36-.15.69-.01,1.04.05.12.05.25.09.48-.19-.09-.29-.16-.4-.19-.16-.04-.35-.11-.49-.07-1.09.33-1.68,1.2-2.19,2.13-.33.6-.3,1.29-.4,1.94-.2,1.38.47,2.34,1.47,3.11.71.55,1.52.97,2.22,1.42.61-.08,1.1-.14,1.62-.21-.4,1.11-.21,2.05.55,2.8.46.46,1.04.82,1.59,1.18.36.23.77.37,1.19.57-.03.22-.02.45-.09.66-.17.51-.28,1.03-.15,1.56.11.44.24.87.37,1.31.03.1.05.21.09.39-1.37-.59-2.65-1.13-4.05-1.49-.08.16-.18.31-.22.47-.23,1.07-.48,2.14-.65,3.23-.09.58-.15,1.18.05,1.76.2.59.56,1.06,1.02,1.47.98.88,2.15.94,3.37.95h1.31c.18-.24.3-.42.45-.58.17-.18.4-.33.55-.52.24-.31.44-.66.67-.98.21-.28.72-.32,1.01-.12.11.08.24.13.36.18.3.11.59.23.9.32.74.22,1.49.35,2.25.2.45-.09.9-.24,1.35-.36.19-.05.37-.09.57-.13.01.07.02.1.02.14,0,.05,0,.1,0,.15-.24,1.1-.13,2.18.33,3.21.07.16.24.31.4.39.45.24.9.46,1.44.37.21-.03.45.05.65,0,.41-.1.9-.14,1.19-.4.53-.47,1.21-.77,1.56-1.44.16-.31.45-.55.63-.85.36-.59.7-.77,1.36-.54.46.16.92.3,1.42.3.32-.03.64-.05.97-.08.3-.06.63-.05.88-.2.72-.42,1.46-.84,1.89-1.6-.02.51.02,1.02-.1,1.54-.08.35-.03.72-.04,1.09-.03.02-.05.05-.08.07h0c-.03.22-.05.45-.09.67-.07.43-.18.85-.22,1.29-.06.59-.09,1.18-.12,1.77,0,.2.04.41.06.61,0,.02,0,.05,0,.07,0,.07,0,.15,0,.22,0,.13.02.26,0,.39-.04.37-.1.74-.15,1.11-.02.08-.07.16-.07.24-.03.82-.05,1.64-.07,2.46,0,.1,0,.2,0,.3.01.43.02.86.03,1.28,0,.05,0,.1,0,.14-.09.71-.22,1.42-.24,2.13-.03.98.03,1.96.06,2.94.02.89.03,1.78.08,2.67.02.36.14.72.21,1.08-.03.54-.06,1.07-.09,1.6-.3.1-.49-.02-.7-.19-.25-.2-.51-.39-.79-.56-.19-.11-.43-.14-.6-.27-.68-.5-1.34-1.01-2-1.53-.27-.21-.59-.39-.81-.65-.39-.46-.74-.96-.7-1.62.02-.24.05-.49.02-.73-.09-.72-.19-1.44-.32-2.16-.1-.56-.21-1.13-.4-1.68-.17-.52-.44-1.01-.43-1.58,0-.04,0-.08-.02-.11-.21-.44-.42-.88-.64-1.31-.27-.55-.54-1.11-.83-1.65-.47-.88-.83-1.83-1.69-2.44-.02-.01-.02-.05-.03-.06-.19-.19-.38-.38-.56-.58-.26-.29-.56-.56-.77-.89-.14-.22-.28-.4-.55-.44-.16-.19-.31-.41-.5-.57-.19-.17-.4-.33-.64-.42-.25-.11-.54-.14-.81-.2-.03,0-.05,0-.08,0-.17-.21-.38-.35-.67-.29-.34-.1-.7-.15-1-.31-.48-.27-1.01-.25-1.51-.28-.5-.03-1,.04-1.51.07-.51.02-1.02.02-1.53.08-.99.12-1.97.28-2.95.42-.53.08-1.05.16-1.57.25-.81.14-1.64.25-2.44.45-.58.15-1.16.23-1.75.22-.16,0-.33-.01-.48.04-.64.23-1.26-.02-1.86.02-.43-.02-.83-.04-1.24-.06-.54-.03-1.09-.02-1.62-.1-.35-.06-.67-.06-1.01.03-.35.08-.68.06-1.04-.06-.59-.19-1.2-.38-1.83-.11-.08.04-.2.01-.3.01-.61,0-1.21,0-1.93,0,.13.36.23.65.34.93.26.68.86,1.16.93,1.97.07.8.33,1.59.54,2.38.16.62.29,1.27.58,1.84.34.68.64,1.36.88,2.07.08.25.16.5.27.73.21.47.45.94.64,1.42.2.48.3,1,.55,1.45.4.75.85,1.48,1.32,2.19.65.96,1.32,1.91,2.01,2.84.4.53.84,1.05,1.31,1.51.46.44.97.84,1.5,1.19.71.47,1.45.88,2.19,1.31.64.38,1.35.54,2.06.69.8.17,1.6.4,2.4.41.78.01,1.57-.17,2.34-.34.89-.21,1.77-.48,2.64-.77.56-.19,1.08-.5,1.64-.7.77-.28,1.57-.48,2.35-.75.95-.32,1.88-.7,2.84-1.01.82-.26,1.66-.49,2.5-.69.4-.09.82-.14,1.23-.12.8.04,1.54.34,2.27.65.13.06.29.09.4.17.53.39,1.04.79,1.57,1.18.2.15.41.27.61.4.4.27.8.53,1.18.82.25.19.46.43.69.65-.05.55-.1,1.1-.15,1.64-.02.5-.05,1-.07,1.49-.03.48-.06.95-.08,1.43-.01.22.02.45-.04.65-.19.78-.3,1.56-.2,2.38.12,1,.12,2.02.18,3.03,0,.05,0,.1,0,.15.02.02.04.04.06.07-.06.5,0,.98.22,1.44.05.21.07.44.15.64.25.62.73,1.05,1.28,1.4.49.31.61.3,1.03-.08.09-.08.2-.12.31-.19.02-.37.05-.74.07-1.11,0-.03,0-.06,0-.08,0-.04,0-.09,0-.13,0-.62.51-1.22.12-1.84.28-.45.07-.9.09-1.35.01-.44.07-.88.1-1.32,0-.6,0-1.2,0-1.8,0-.24.03-.49.04-.73,0-.28,0-.56,0-.84,0-.45.02-.89.03-1.34-.03-.15-.05-.3-.08-.45.04-.91.08-1.82.1-2.72.03-1.15.04-2.3.04-3.45,0-.44-.02-.89-.04-1.33-.02-.4-.06-.81-.07-1.21,0-.23.03-.46.05-.69.07-.66.07-1.33.08-1.99,0-.1.1-.25.19-.29.37-.15.75-.3,1.14-.39.41-.09.84-.06,1.25-.16.76-.18,1.49-.46,2.25-.61.52-.11,1.11-.11,1.47.37.34.45.63.95.88,1.46.22.45.31.98.56,1.41.43.73.94,1.41,1.44,2.11.22.3.45.6.7.86.74.78,1.47,1.57,2.26,2.29.48.43,1.09.72,1.61,1.1.69.51,1.5.77,2.3,1.03.71.22,1.48.28,2.22.41.14.03.29.05.43.07l.28-.2c.37.07.74.03,1.1.08.52.08,1.01.05,1.5-.14.13-.05.29-.02.44-.03.08,0,.17,0,.25-.03.43-.13.84-.34,1.28-.38.54-.05.99-.28,1.43-.55.61-.18,1.22-.35,1.62-.7.53-.17.95-.3,1.36-.45.12-.05.22-.18.32-.27.36-.13.61-.48,1.06-.44.18.02.39-.05.56-.13.56-.24,1.14-.27,1.71-.12.87.23,1.74.45,2.64.48.54.02,1.09.14,1.62.24.34.06.67.16,1,.26.27.08.53.19.79.29.1.04.19.11.3.15.57.25,1.14.52,1.73.75.32.12.62.38,1,.27.17-.38.23-.73-.01-1.08ZM95.76,68.44c-.87.33-1.74.66-2.6,1-1.02.4-2.02.85-3.06,1.21-1.04.36-2.03.82-3.02,1.28-.37.18-.84.23-1.26.21-.88-.04-1.75-.13-2.62-.27-.39-.06-.75-.3-1.12-.46-.39-.16-.78-.32-1.17-.49-.22-.1-.42-.23-.63-.35-.59-.41-1.34-.59-1.7-1.33-.07-.15-.25-.25-.38-.37-.03-.02-.06-.04-.09-.07-.28-.31-.56-.61-.75-.83-.18-.35-.25-.66-.44-.84-.62-.61-1.14-1.29-1.63-2.01-.16-.25-.36-.47-.56-.69-.42-.46-.47-1.1-.77-1.61-.1-.17-.24-.32-.36-.48-.05-.06-.14-.15-.13-.2.11-.41-.22-.63-.39-.91-.1-.16-.19-.31-.29-.47-.18-.28-.37-.56-.55-.84l-.11.06c-.36-1.21-.72-2.42-1.11-3.71.37.32.68.61,1.02.87.55.42,1.12.8,1.67,1.21.4.29.78.61,1.17.92.54.44,1.07.88,1.61,1.32.27.22.53.46.82.65.25.16.55.25.82.4.23.13.43.31.66.45.89.53,1.78,1.07,2.85,1.2.37.04.72.26,1.09.31.77.09,1.56.11,2.34.17.38.03.76.07,1.14.1.68.06,1.37.07,2.05.18.42.07.83.27,1.23.43.46.18.92.37,1.35.6.39.21.73.49,1.12.71.84.47,1.69.92,2.53,1.38.27.15.51.34.77.49.33.19.66.37,1.07.6-.24.07-.4.11-.55.16ZM98.47,66.27c-.34-.19-.58-.35-.83-.46-.24-.1-.51-.13-.75-.24-.23-.1-.44-.26-.64-.41-.4-.29-.78-.62-1.19-.9-.4-.27-.84-.5-1.24-.77-.13-.09-.21-.26-.34-.35-.4-.24-.79-.5-1.2-.72-.25-.14-.52-.27-.79-.35-.56-.17-1.13-.32-1.7-.45-.18-.04-.38-.03-.58-.04-.73-.01-1.46-.02-2.19-.04-.45-.01-.89-.06-1.34-.06-.87,0-1.7-.22-2.52-.48-.14-.05-.31-.02-.45-.06-.23-.1-.47-.2-.7-.31-.59-.29-1.17-.58-1.76-.88-.07-.03-.15-.08-.17-.14-.22-.52-.7-.76-1.13-1.03-.57-.36-1.01-.89-1.56-1.25-.33-.22-.74-.32-1.11-.49-.19-.08-.39-.16-.55-.29-.5-.38-.98-.79-1.47-1.18-.12-.09-.27-.14-.38-.23-.12-.11-.22-.26-.34-.41.13-.07.18-.12.24-.12.82-.11,1.63-.03,2.45,0,.87.04,1.76.08,2.61-.33.61-.3,1.28-.48,1.92-.73.38-.15.74-.32,1.12-.48.61-.25,1.21-.17,1.84-.05.66.13,1.34.13,2.01.19.19.02.38.06.6.09.15,0,.32.02.49,0,.62-.08,1.26-.33,1.85-.23.67.12,1.32.38,2.02.36.11,0,.23.12.34.2.85.6,1.81,1.07,2.51,1.87.32.37.61.78.9,1.18.67.94,1.34,1.86,1.97,2.82.32.48.54,1.03.8,1.55.15.3.3.6.4.92.17.55.31,1.12.44,1.68.17.7.33,1.4.47,2.1.03.13-.03.27-.06.49ZM106.04,82.73s-.02-.04-.03-.05c.01,0,.02.03.03.05h0ZM108.9,82.03h0s.05-.01.05-.03c0,.01-.03.02-.05.03ZM108.96,81.1s-.01-.05-.02-.06c.01,0,.02.04.02.06h0ZM109.2,43.3c.18-.04.28-.09.33-.06.77.4,1.54.81,2.34,1.23-.25.28.2.68-.26.87-.36.1-.72.15-1.05-.08h0s-.05-.05-.08-.07c-.41-.61-.83-1.21-1.28-1.88ZM113.84,41.16c-.76-.51-1.5-1.06-1.74-2.03-.09-.35-.08-.66.23-.94.28-.26.43-.6.19-1.01-.08-.14-.09-.34-.06-.5.14-.7-.08-1.09-.75-1.31-.21-.07-.4-.19-.57-.32-.23-.17-.43-.36-.67-.57.11-.35.51-.38.73-.61.22-.24.44-.47.71-.76.39.1.78.18,1.16.31.09.03.16.24.17.37.07.63.07,1.26.18,1.88.06.34.23.7.46.95.41.44.9.8,1.38,1.17.17.13.4.17.57.25-.05.4-.16.78-.14,1.15.02.36.18.71.29,1.12-.43.29-.84.58-1.26.85-.28.18-.62.19-.88.01ZM110.04,23.33c-.05-.16-.08-.33-.15-.48-.14-.34-.3-.67-.45-1h0c.6-.54.34-1.2.22-1.81-.13-.66-.37-1.3-.54-1.95-.04-.16,0-.34,0-.51.04-.47.11-.95.13-1.42.03-.5.36-.82.65-1.19.13.02.24.03.36.05.44.25.46.91.99,1.04.37.46.75.92,1.11,1.39.34.44.41.92.21,1.46-.12.32-.23.67-.23,1,0,.86.63,1.61,1.47,1.82.12.03.24.03.42.05.12-.7.76-1.12.82-1.85.02-.21.19-.42.34-.59.42-.5.88-.96,1.29-1.46.58-.7,1.4-1.05,2.14-1.5.08-.05.3-.04.33.02.15.24.26.5.36.77.14.38.12.82.41,1.15.06.07.07.18.09.27.05.28.09.57.15.85.08.38.27.75.01,1.09-.08.11-.15.23-.23.33-.36.45-.83.76-1.35,1-.2.09-.42.19-.56.35-.4.48-.9.6-1.5.55-.28-.02-.57.08-.85.13-.21.03-.43.06-.72.1.03.13.07.27.11.46-.11.36-.23.77-.35,1.17-.13.25-.08.41.22.45h0c.09.14.18.29.23.36.42-.02.77-.05,1.12-.07.64.13,1.17.46,1.65.88.28.25.34.57.21.98-.17.58-.56.97-.99,1.32-.23.19-.58.3-.88.32-.49.04-.99-.05-1.48-.03-.25,0-.5.1-.74.19-.25.1-.47.1-.7-.07-.24-.18-.48-.27-.79-.11-.21.11-.42.03-.56-.21-.3-.5-.62-.99-.96-1.45-.16-.22-.41-.38-.6-.58-.17-.18-.31-.37-.48-.56.26-.92.45-1.81.03-2.71ZM112.56,13.56c.24-.23.48-.46.79-.75.11.43.17.76.28,1.08.07.21.18.43.32.6.33.42.7.83,1.11,1.31-.22.11-.39.27-.56.26-.22-.01-.34-.2-.43-.44-.12-.31-.34-.58-.54-.86-.3-.4-.62-.77-.96-1.21ZM122.08,39.22c-.43.26-.9.48-1.3.78-.49.37-.83.85-.91,1.49-.02.14-.11.27-.18.44.07.51.39.85.88,1.1.2.1.34.33.49.51.09.11.15.26.24.38.38.51.44,1.08.31,1.69-.02.11-.09.26-.18.3-.51.25-.95.6-1.53.71-.58.12-1.08-.05-1.57-.26-.56-.23-1.08-.59-1.66-.76-1.06-.31-1.34-1.17-1.64-2.05-.03-.08-.09-.15-.12-.23-.03-.07-.06-.14-.12-.29.96-.76,2.11-1.27,2.83-2.32.7.37.89-.27,1.21-.55.36-.32.62-.75.92-1.15.19-.26.35-.55.56-.79.25-.29.54-.54.85-.84.56.36,1.12.74,1.54,1.38-.23.16-.42.32-.63.45ZM125.87,45.33c-.15.1-.31.18-.45.29-.39.29-.74.2-.9-.26-.14-.4-.29-.79-.4-1.2-.16-.61-.5-1.09-.98-1.48-.07-.06-.12-.15-.26-.32.8-.03,1.07-.73,1.61-1.01,1.05.5,1.46,1.46,1.92,2.39-.39.47.01,1.19-.54,1.58ZM126.71,39.23l-1.38-.33s-.02-.07-.03-.11c.24-.13.5-.22.7-.39.22-.18.37-.43.63-.74.07.54.13,1,.2,1.46-.04.04-.08.07-.12.11ZM131.65,28.65s0,.04,0,.06c-.12.08-.25.16-.37.23,0,0,0,0,0,0-.11.07-.24.13-.32.22-.27.31-.59.52-.96.68-.12.05-.2.19-.29.29-.34.16-.65.35-.78.73-.08.24-.18.47-.25.71-.12.38-.22.77-.39,1.15,0-.37.14-.74-.29-.98.09-.4-.16-.62-.43-.81.09-1.17.37-1.71.92-1.79.72-1.14,1.5-2.24,2.82-2.91.38.64.62,1.29.58,2.03-.07.13-.14.25-.22.38ZM128.11,36.99c-.62-.53-.62-.95-.19-1.68.24-.4.26-.93.36-1.41.04-.2.05-.41.07-.61.04,0,.09-.01.13-.02.06.08.12.16.18.24.05.13.1.25.15.38,0,0,0,0,0,0,.07.35.15.7.22,1.05.1.3.23.6.3.91.1.39.15.79.22,1.17-.5.45-.95.06-1.44-.03ZM131.46,17.73c.15-.18.31-.36.45-.54.44-.56,1.3-.6,1.72-.04.19.25.47.49.42.88,0,.6,0,1.2,0,1.8-.03.31-.02.62-.09.92-.04.17-.19.31-.28.44-.44-.18-.78-.38-1.16-.45-.36-.07-.75-.02-1.06-.02-.16-.59-.38-1.13-.44-1.68-.05-.45.12-.92.43-1.3ZM129.98,24.59c.27-.48.57-.95.9-1.49.09.56.18,1.07.26,1.53-.57.32-1.1.57-1.58.9-.47.32-.87.73-1.36,1.15-.08-.51-.11-.93.1-1.33.11-.2.26-.32.54-.29.46.06.88-.02,1.14-.48ZM122.83,12.7c.09-.37.24-.73.41-1.08.17-.36.67-.47,1.06-.19.39.27.73.62,1.07.95.5.48.76,1.1.88,1.76.08.43.06.89.07,1.33,0,.06-.04.12-.07.17-.29.42-.58.83-.88,1.25-.16.22-.34.42-.5.64-.35.48-.02,1.3.3,1.54.31.23.87.02,1.12-.45.82-.09,1.56.22,2.28.6v.63c.14-.12.22-.18.3-.25.05,0,.09,0,.14,0,.13.02.26.04.38.06.26.65.03,1.68-.48,2.14-.33.08-.6-.03-.86-.23-.36-.28-.73-.54-1.11-.8-.28-.19-.42.06-.6.23-.77-.11-1.45-.49-2.06-.93-.25-.18-.38-.6-.47-.93-.11-.4-.3-.72-.54-1.05-.21-.28-.33-.67-.35-1.02-.05-.76-.15-1.49-.4-2.2-.04-.12-.08-.27-.05-.4.11-.59.21-1.19.36-1.77ZM121.82,28.83c.27.21.51.22.67.12.46-.47.44-1.1.98-1.41.03-.15.07-.32.11-.51-.18-.3-.36-.62-.56-.96-.13-.05-.28-.11-.44-.17-.26-.51-.27-1.05-.11-1.59.07-.24.33-.3.78-.2.11.03.21.06.4.12.2-.29.41-.6.67-.96.18-.05.39.04.56.21.46.48.75,1.04.79,1.72.05.73.14,1.45.22,2.18,0,.04,0,.09.01.11.53.64.14,1.32.06,1.98-.06.57-.09,1.15-.25,1.69-.16.51-.2,1.01-.21,1.53,0,.13.02.27.08.38.21.42.43.85.37,1.33-.1.69-.31,1.35-.88,1.81-.24.2-.51.37-.75.54-.51-.31-.7-.75-.8-1.23-.23-1.1-.43-2.2-.65-3.34-.43-.21-.87-.26-1.34-.06-.29.12-.59.22-.99.36,0,.06-.06.22-.01.34.11.25.02.45-.12.63-.2.27-.43.51-.66.76-.32.34-.67.64-.97.99-.6.69-1.41.95-2.26,1.04-.46.05-.95-.11-1.4-.18-.35-.97.49-1.97,1.65-2.13.26-.1.52-.19.78-.29.38-.13.82-.16,1.02-.59.05-.05.1-.1.15-.14h0c.07-.09.18-.18.21-.28.04-.15.01-.31.01-.47h0c.02-.08.05-.15.07-.23,0-.05,0-.1,0-.15.02-.07.05-.15.07-.22.32-.22.63-.44.97-.66.34-.81.68-1.62,1.03-2.46.21.1.51.2.74.38ZM117.25,6.24c0-.22.11-.44.17-.67.03.02.06.04.09.06.33-.29.65-.59.99-.85.35-.26.72-.51,1.1-.71.16-.09.39-.09.53.13.07.44.15.87.2,1.31.02.16-.05.35-.12.49-.17.33-.35.66-.57.96-.29.39-.26.82-.25,1.25.02.36-.09.63-.34.89-.11.11-.16.31-.17.47-.07.72-.09,1.44-.17,2.16-.05.46-.18.91-.27,1.37-.02.11-.02.22-.03.31-.37.66-1.08.76-1.62,1.1-.31-.16-.44-.42-.45-.71-.02-.6.01-1.2-.03-1.8-.03-.36-.15-.71-.23-1.07-.01-.05-.05-.09-.05-.14,0-.4,0-.79,0-1.25.19-.58.92-1.01.74-1.84-.04-.18-.14-.35-.22-.52.08-.06.15-.14.23-.18.47-.22.47-.25.47-.76ZM109.97,4.34c.04-.27.09-.57.4-.7.02,0,.05-.03.06-.05.17-.57.7-.68,1.14-.91.04-.02.08-.05.18-.11.51.2,1.05.41,1.59.63.02.02.05.05.07.07h0s.05.05.07.07c.02,0,.05.01.07.02.18.12.35.25.53.37.03.05.06.1.08.15.07.2.14.4.22.6-.06.17-.13.33-.19.51.08.09.16.18.24.26q-.05.34.32.74c.08.1.15.2.23.29.18.17.36.34.53.51.1.05.2.1.29.14-.54.23-.96.41-1.37.59-.03.15-.05.25-.08.37-.13.1-.26.2-.46.35.07.17.15.34.27.61-.3.19-.64.41-.96.63-.38.49-.77.98-1.15,1.47-.06.08-.08.18-.14.25-.16.2-.33.4-.5.6-.09.1-.19.18-.29.27-1.02.22-1.59-.59-1.43-1.56.04-.22.04-.44.06-.66.33-.45.66-.89,1.01-1.36-.17-.09-.27-.15-.37-.21.02-.01.04-.03.06-.04-.2-.29-.41-.57-.61-.86,0-.02,0-.04-.01-.06,0-.05,0-.1,0-.15-.08-.95.02-1.9.16-2.84ZM108.69,26.96c.26.46.51.9.76,1.33.19.32.41.63.56.97.26.6.56,1.18.56,1.87,0,.42-.17.74-.44,1.03-.04.04-.07.1-.1.15-.05.03-.1.05-.15.08-.02,0-.04,0-.07,0-.08.03-.15.05-.23.08-.05,0-.09,0-.14,0-.46,0-.88.3-1.36.15-.06-.02-.15.05-.22.08-.07,0-.15,0-.22,0-.48-.1-.96-.2-1.43-.29-.04,0-.09,0-.13,0-.23-.07-.46-.15-.69-.22-.02,0-.05,0-.07-.01-.17-.05-.35-.1-.52-.16-.1-.42-.21-.85-.33-1.33-.45-.18-.91.07-1.37.24-.27.1-.55.22-.8.36-.36.2-.7.41-1.04.64-.09.06-.17.16-.2.26-.09.27-.26.42-.51.55-.29.15-.48.39-.48.77,0,1.06-.73,1.61-1.7,1.37-.28-.07-.58,0-.88.01-.44,0-.68-.25-.74-.64-.05-.33-.04-.68-.03-1.02.01-.34.06-.69.09-.95.29-.4.53-.75.8-1.08.16-.2.35-.37.55-.54.22-.19.49-.2.77-.13.12.03.26.04.37.06.1-.22.19-.39.28-.59h1.36c.13-.36.23-.63.33-.9,0-.02,0-.04,0-.06.3-.11.38-.34.23-.66-.07-.14-.15-.27-.23-.4-.23-.61-.74-.86-1.31-1.05-.35-.12-.68-.27-1.02-.41-.04-.02-.1-.05-.12-.09-.33-.58-.7-1.14-.69-1.85,0-.38-.02-.77.04-1.15.09-.54.25-1.07.36-1.53.88-.48,2.64.08,2.66.83-.33.29-.25.6.03.95.12.04.27.09.42.15-.01.01-.02.02-.04.04.21.23.39.52.65.69.24.16.56.2.84.29.29.09.59.18.91.28.01-.71-.16-1.48.3-2.12.42-.59.92-1.13,1.38-1.69,1.24.34,1.78,1.31,2.28,2.08.39,1.37.32,2.61.27,3.91.16-.12.28-.2.46-.32ZM104.94,34.95c-.47.52-.88.97-1.3,1.44-.35-.48-.66-.91-.99-1.35.31-.23.52-.61,1.03-.42.38.15.8.21,1.26.33ZM96.89,3.06c-.06-.45.02-.85.38-1.17.05-.05.1-.11.13-.17.19-.31.4-.4.71-.23.27.14.53.32.76.53.66.61,1.32,1.21,2.2,1.52.3.1.63.22.84.43.28.28.47.66.67.96-.68.22-1.27.47-1.88.6-.73.16-1.27.61-1.84,1.05-.08.06-.12.18-.16.28-.15.31-.34.61-.42.93-.1.45-.13.92-.16,1.39-.02.29,0,.58,0,.87-.03,0-.07.01-.1.02-.17-.49-.35-.99-.54-1.54-.03-.02-.11-.1-.19-.17.02,0,.03-.02.05-.03-.2-.4-.4-.8-.62-1.23.11-.21.23-.42.3-.54,0-.43.03-.78-.01-1.11-.03-.23-.17-.43-.24-.66-.06-.19-.13-.4-.11-.59.04-.38.13-.76.24-1.14ZM95.68,15.87c.18-.42.53-.77.85-1.22.27.14.48.28.71.37.25.1.52.18.79.21.57.06,1.15.1,1.73.1.45,0,.59-.22.49-.66.07-.07.14-.15.22-.23.12,0,.25,0,.37-.01.41-.06.58-.36.45-.74-.07-.16-.19-.31-.21-.48-.03-.33-.08-.68,0-.98.17-.61.07-1.19-.07-1.78-.04-.17-.04-.36-.07-.58.14-.26.28-.57.02-.91-.05-.06-.06-.18-.03-.25.16-.41.3-.84.51-1.22.27-.5,1.25-.85,1.7-.61.21.11.41.33.52.54.25.53.47,1.09.65,1.65.11.34.15.7.18,1.06.03.41-.14.75-.49.97-.21.14-.44.28-.39.58.03.16.13.31.21.51-.16.39.01.79.15,1.19.15.44.63.62,1.06.45.47-.19.94-.42,1.39-.67.69-.24,1.51.36,1.87,1.04-.21.54-.44,1.06-.6,1.61-.11.36-.15.75-.17,1.13-.03.47-.02.94-.02,1.4,0,.3,0,.61,0,.93-.09,0-.16.02-.2,0-.74-.38-1.38-.09-1.99.32-.3.2-.59.4-.87.63-.19.15-.34.34-.5.52-.26.28-.51.57-.76.86-.13.15-.27.22-.45.09-.28-.34-.55-.68-.83-1.02-.02-.03-.09-.02-.14-.03-.02-.02-.05-.05-.07-.07l-.08-.08s0-.04,0-.06c-.21-.34-.45-.64-.9-.68h0s-.05,0-.07,0c-.07-.03-.15-.05-.22-.08-.05-.02-.1-.04-.15-.07-.05,0-.1,0-.15-.02-.1-.07-.2-.14-.3-.21h0s.05-.05.08-.07c.39-.44.31-.88-.2-1.11-.15-.07-.29-.14-.41-.21-.02-.17-.02-.31-.05-.46-.1-.56-.5-.63-1.03-.45-.55.19-.76.77-1.29.92-.07.02-.11.13-.15.21-.13.23-.3.4-.6.32-.27-.07-.44-.19-.57-.49-.34-.77-.18-1.48.11-2.18ZM94.76,27.29c.13,0,.27-.02.4.01.46.12.56.48.21.77-.6.49-1.07,1.08-1.45,1.76-.07.13-.14.26-.17.41-.16.71-.69,1.14-1.16,1.62-.26.27-.48.59-.74.87-.12.13-.3.21-.41.29-.39-.05-.76-.02-1.07-.15-.41-.18-.7-.54-.83-.99-.11-.4-.19-.81-.32-1.2-.02-.29-.04-.57-.07-.96.3-.76.93-1.37,1.78-1.89.24-.04.58-.11.92-.17.37-.32.29-.77.3-1.2.55.47,1.21.71,1.91.83.23.04.47,0,.7-.01ZM84.78,16.55c-.06-.44-.11-.84-.16-1.24.03,0,.05,0,.08.01.07-.48.11-.97.21-1.44.07-.3.2-.6.34-.88.14-.29.37-.55.49-.85.18-.45.57-.7.85-1.05.06-.07.26-.08.37-.04.68.26,1.37.5,2.01.84.44.23.78.63,1.16.95.58-.16,1.21-.11,1.68-.74-.05-.36-.08-.83-.19-1.28-.08-.34-.02-.62.12-.92.1-.21.14-.45.23-.78.38-.17.46-.67.68-1.09.15-.29.38-.55.6-.86.24.03.49.07.71.1.84.59.61,1.38.48,2.14-.07.39-.22.76-.3,1.15-.04.19-.07.41-.02.59.13.46.3.91.46,1.38-.5.41-1.16.37-1.86.55-.11.16-.27.39-.45.64-1.37-.52-1.97-.44-2.49.37.14.81.96.75,1.46,1.1-.31.16-.61.28-.87.46-.18.12-.31.32-.47.48-.12.12-.26.22-.4.33-.22.18-.45.22-.76.17-.58-.09-1.17-.09-1.76-.12-.42-.02-.84-.05-1.25-.04-.29,0-.58.05-.95.09ZM90.98,18.29c-1.05.57-1.92,1.24-2.57,2.19-.79-.23-1.63-.3-2.05-1.19.29-.27.55-.52.83-.76.09-.07.22-.13.33-.13.59.03,1.18.09,1.78.13.22.01.43,0,.66,0,.21-.15.42-.29.65-.45.1.05.19.11.38.21ZM83.33,24.99c.05-.43.15-.85.23-1.28.07-.37.16-.73.24-1.1.02-.12.02-.24.03-.38.38-.26.78-.54,1.25-.87.24.13.52.25.77.41.61.39,1.2.8,1.8,1.19.09.06.21.08.23.09.3.32.53.62.82.84.17.14.43.21.65.23.34.03.68.02,1.02-.04.36-.07.54-.36.67-.69.12-.29.31-.51.57-.71.21-.17.27-.51.46-.73.29-.33.63-.63.96-.93.12-.1.28-.15.42-.23.62.34,1.14,1.24.73,1.96-.29.51-.53,1.06-.8,1.58-.04.08-.16.12-.25.18-.02,0-.05,0-.07,0-.03.03-.06.06-.08.09-.02.07-.04.15-.07.22-.13.08-.25.15-.38.23-.02.15-.05.3-.07.45-.05.15-.11.3-.16.45-.05.17-.09.35-.14.52-.07-.15-.15-.3-.22-.45-.73,0-1.48-.1-2.17.26-.01,0-.02.01-.03.02-.33.67-.86.34-1.35.29-.39-.04-.78-.04-1.19-.06-.03.21-.05.36-.09.56-.23.05-.48.11-.76.18v.53c-.15.04-.33.14-.5.12-.71-.08-1.41-.17-2.11-.29-.32-.06-.59-.6-.56-.99.04-.55.08-1.11.15-1.66ZM82.56,32.23c-.66-.32-1.28-.04-1.63.41-.25.06-.5.13-.76.19-.06.01-.13,0-.18-.02-.49-.31-1.02-.59-1.24-1.16-.09-.24-.08-.53-.04-.79.06-.4.17-.8.29-1.19.13-.43.85-.75,1.25-.56.31.14.59.33.89.5.45.26.93.3,1.44.18.16-.04.35-.04.5,0,.85.27,1.71.37,2.59.22.08-.01.17,0,.32.01.07.28.15.57.25.93-.8.1-1.53.2-2.36.3-.19.22-.47.48-.66.79-.18.29-.38.32-.65.19ZM87.34,45.1c-1.15.5-1.93,1.45-2.77,2.32-.36.36-.54.4-1.02.2-.06-.02-.12-.03-.18-.05-.57-.15-.69-.36-.54-.94.1-.37.21-.74.3-1.07.2-.17.35-.3.52-.44.72.05,1.38.28,1.81.63.24-.07.49-.13.73-.22.43-.17.56-.42.51-.91-.01-.15,0-.3,0-.53.29.13.51.24.72.34-.03.25-.05.45-.07.67ZM89,41c-.27.34-.49.72-.73,1.09-.31.02-.63.05-.98.08-.19-.76-.46-1.56.04-2.23.45-.6,1.02-1.18,1.93-1.04.29-.59.66-1.15.42-1.83-.06-.17-.19-.33-.32-.46-.16-.16-.37-.28-.53-.41-.53.07-1.07.1-1.59.23-.57.14-1.13.37-1.75.58-.47-.25-1.02-.47-1.42-.97-.25-.31-.26-.62-.14-.89.16-.36.42-.68.68-.98.11-.13.35-.18.54-.2.41-.05.83-.08,1.24-.06.2.01.41.14.59.25.3.2.57.43.89.67.47-.54.93-.3,1.4-.11.67.27,1.33.53,2.08.34.14-.04.31.04.45,0,.16-.03.31-.13.46-.2,0-.03-.02-.06-.03-.09h.73c.33-.29.68-.36,1.09-.23.45,1.12,1.15,1.98,2.48,2.18-.65,1.5-.46,2.88.43,4.22-.26.2-.5.4-.76.57-.21.13-.44.23-.66.34-.24.11-.47.12-.71-.02-.73-.43-1.27-.98-1.43-1.87-.18-.98-.83-1.68-1.96-1.52-.24.03-.48-.02-.78-.04.08.17.13.3.19.42-.15.37-.31.75-.47,1.15-.13,0-.28.02-.47.04-.29.3-.62.62-.9.97ZM95.02,44.99c0,.37-.22.59-.52.73-.49.23-.97.49-1.47.68-.61.23-1.22.14-1.81-.1-.36-.14-.71-.29-1.06-.44-.37-.16-.51-.39-.49-.79,0-.08-.06-.17-.05-.25.04-.18.06-.4.17-.51.32-.31.7-.58,1.05-.87.29-.24.61-.22.94-.1.15.05.31.08.47.13.59.12,1.2.21,1.78.37.59.17,1.15.43,1.73.64-.05.08-.11.15-.16.23-.19.09-.37.18-.57.27ZM98.96,47.45c-.1.16-.19.34-.31.48-.55.63-.89,1.52-1.91,1.61-.32-.15-.28-.45-.23-.71.18-.87.3-1.77.77-2.56.04-.07.02-.17.04-.25.04-.27.09-.54.19-.81-.11-.3-.43-.37-.71-.48l-.23-.29c.24-.2.49-.41.73-.61.45-.38.9-.76,1.37-1.16.12.06.29.12.44.2.41.22.68.54.61,1.04-.09.59,0,1.15.16,1.71.01.05.02.1.03.15-.58.43-.73,1.07-.93,1.68ZM106.14,44.8c-.05.05-.1.1-.15.15h0s-.04.05-.07.08c-.63.54-1.25,1.1-1.9,1.62-.6.48-1.51.43-2.05-.09-.2-.2-.22-.48-.29-.76-.1-.43,0-.8.11-1.18.42-.53.88-1.03,1.63-1.09.63.37.96.43,1.2-.17.13,0,.27-.01.49-.03.03-.69.05-1.35.08-2.04.38.13.77.57,1.36.18.35-.35.43-.86.32-1.43-.02-.1-.02-.22.02-.32.07-.2.17-.43-.05-.53-.23-.11-.52-.19-.76-.15-.24.04-.49.2-.68.37-.14.13-.21.34-.3.52-.09.18-.17.38-.26.56-.03-.01-.06-.02-.09-.04-.02.12-.05.24-.07.39-.32.13-.62-.04-.81-.2-.37-.31-.8-.43-1.23-.54-.18-.05-.43.04-.6.13-.39.22-.76.49-1.14.73.01.03.02.05.03.08-.17,0-.35,0-.52,0-.55-.01-.7-.2-.86-.73-.17-.53-.1-1.05-.13-1.57-.04-.8.71-1.62,1.34-1.69.26-.03.54.02.79.09.43.12.86.26,1.27.42.4.16.63.5.7.93.08.44.39.63.81.5.34-.11.6-.32.73-.68.07-.2.22-.38.33-.57.47-.83,1.07-1.55,1.77-2.2.13-.12.28-.2.49-.35.8.29,1.47.95,2.35,1.28.02.47.01.92-.33,1.31-.2.23-.39.49-.5.77-.06.18.03.43.08.64.04.14.13.26.19.36-.25.33-.46.63-.7.9-.33.38-.19.82-.18,1.23,0,.36.08.72.12,1.09-.07.05-.13.12-.2.15-.1.04-.22.05-.33.08-.02,0-.05,0-.07,0h-.35c-.15.13-.27.24-.39.35q-.36-.07-1.3.69c.07.14.15.3.23.45-.04.09-.09.19-.13.29h0ZM135.24,70.38c-.13.03-.25.1-.37.16h-.04s-.04,0-.04,0c-.1.02-.2.05-.3.07-1.58.38-3.16.82-4.76,1.14-1.37.27-2.73.04-4.03-.47-1.15-.45-2.08-1.22-2.89-2.13-.29-.32-.59-.64-.88-.96-.13-.15-.22-.32-.34-.48-.11-.14-.21-.28-.34-.39-.23-.19-.37-.41-.49-.71-.15-.39-.48-.71-.72-1.06-.3-.43-.61-.86-.88-1.31-.15-.25-.22-.54-.35-.8-.04-.08-.16-.13-.25-.19-.1-.07-.21-.12-.35-.2.26-.14.46-.25.66-.36.28.02.57.01.85.05.7.1,1.39.27,2.09.3.65.03,1.23.2,1.84.41,1.4.47,2.48,1.45,3.73,2.17.54.3,1.09.59,1.66.81.44.17.93.24,1.4.3,1.04.12,2.09.23,3.14.29.6.03,1.21-.03,1.82-.05h0c.08,0,.15,0,.23,0,.58.06,1.15.13,1.73.19.53.06,1.07.1,1.6.17.77.11,1.54.19,2.29.37.64.15,1.27.37,1.86.65.44.21.8.57,1.2.87-.1.01-.21.05-.31.04-.55-.03-1.09-.11-1.64-.1-.63,0-1.27.06-1.9.15-.6.08-1.19.24-1.79.36-.57.11-1.14.2-1.71.32-.58.13-1.15.28-1.73.42ZM145.56,67.26c-.35-.23-.75-.41-1.05-.69-.48-.44-1.08-.61-1.65-.8-.69-.23-1.42-.34-2.13-.49-.25-.05-.51-.08-.77-.12-.33-.06-.66-.13-.99-.17-.33-.03-.67,0-1-.05-.59-.08-1.17-.25-1.77-.3-1.09-.1-2.19-.14-3.29-.23-.59-.05-1.18-.12-1.76-.23-.92-.17-1.86-.3-2.73-.6-.86-.3-1.67-.75-2.46-1.21-.93-.54-1.94-.8-2.96-1.01-.57-.12-1.17-.13-1.75-.18-.59-.05-1.18-.09-1.78-.13-.28.16-.55-.07-.84-.03-.44.06-.88.11-1.32.17-.06,0-.12,0-.22-.08.31-.26.6-.53.92-.79.71-.58,1.48-1.08,2.36-1.39.56-.19,1.14-.32,1.7-.52,1.06-.39,2.16-.52,3.27-.56.58-.02,1.19.12,1.74.31,1.11.4,2.1,1.05,3.02,1.78.54.43,1.03.94,1.62,1.29.57.35,1.22.61,1.87.8.79.24,1.62.38,2.43.52.54.1,1.11.1,1.65.2.87.16,1.74.37,2.61.55.96.2,1.86.55,2.75.96.76.35,1.33.9,1.85,1.51.29.34.49.77.72,1.16.04.07.04.18.06.27-.02.02-.05.04-.07.06Z"/>
    <path class="st0" d="M105.29,26.81c-.79-.15-1.48.13-2,.48-.12.41-.2.69-.27.97.24.24.5.5.77.75.57.54,1.62.29,1.84-.31.05-.15.15-.28.24-.41.35-.53.04-1.37-.57-1.48Z"/>
    <path class="st0" d="M111.51,25.41c.31.13.66.17,1.13.29.44,0,.71-.33.88-.82.21-.61-.17-1.22-.82-1.24-.27-.01-.54.02-.81,0-.46-.04-.78.19-1.08.51.04.09.08.17.11.25-.08.16-.14.3-.25.53.29.17.55.37.84.49Z"/>
    <path class="st0" d="M103.52,18.63c.62-.67.87-1.4.28-2.3-.76-.19-1.45-.02-2.08.52.05.11.09.2.12.28-.07.12-.13.23-.19.32.2.87.97,1.35,1.87,1.18Z"/>
    <path class="st0" d="M122.17,31.28c.42.17.83.36,1.25.55.29.13.52.05.76-.17-.02-.13-.04-.26-.06-.39.47-.99.36-1.7-.41-2.05-.24.13-.52.29-.8.43-.14.07-.29.14-.44.2-.51.19-1.02.37-1.23,1.05.1.06.22.17.36.23.18.07.39.09.57.16Z"/>
    <path class="st0" d="M91.43,37.44c.34.11.67.26,1.01.33.5.1.99-.03,1.11-.58-.11-.72.09-1.49-.62-2.05-.82.31-1.41.92-1.76,1.67.12.22.21.38.3.55-.02.02-.03.05-.05.07Z"/>
  </g>
  <g>
    <path class="st4" d="M13.83,120.25c-1.67,1.25-3.72,1.9-5.78,1.9-1.41,0-3.69-.42-4.67-.84-.19-.08-.8-.08-1.03-.08s-.57-.27-.57-.68c0-.3.19-10.68.19-15.12,0-3.95-.08-4.94-.15-5.36-.08-.38-.38-.65-1.22-1.14-.53-.3-.61-.42-.61-.61,0-.11.38-.72.61-.76.8-.3,2.62-.8,3.68-1.33.3-.08.72-.23.91-.23s.46.57.42.99c-.15,2.62-.3,5.51-.3,9.73,0,.19.23.38.38.3,1.56-.84,3.34-1.25,4.29-1.25,1.44,0,3.04.34,4.79,1.86,2.05,1.79,2.51,4.33,2.51,5.93,0,2.62-1.44,5.13-3.46,6.69ZM8.32,107.9c-1.18,0-1.75.23-2.36.68-.11.08-.49.65-.49.8-.08.38-.15,1.52-.15,4.26,0,3.15.19,3.84.38,4.45.19.49,1.1,2.2,3.65,2.2,1.03,0,2.09-.46,2.39-.72.27-.3,1.75-1.79,1.75-5.47s-2.47-6.19-5.17-6.19Z"/>
    <path class="st4" d="M19.53,97.42c1.22-.46,2.7-.95,3.57-1.22.42-.15.72-.19.91-.19.3,0,.46.65.46,1.63,0,3-.11,8.59-.11,12.12,0,2.05,0,7.48.08,8.4.11,1.48.23,1.6,1.98,2.24.65.27.84.61.84.87,0,.3-.27.53-1.1.53-1.14,0-2.62-.11-3.61-.11-1.48,0-2.39.15-3.38.15-.61,0-1.14-.15-1.14-.49,0-.38.34-.68,1.03-.91,1.63-.61,1.71-1.1,1.82-1.86.08-.61.15-3,.15-8.74,0-5.13,0-9.12-.11-9.76-.08-.46-.49-.8-1.18-1.06-.76-.34-.95-.53-.95-.84,0-.34.49-.65.76-.76Z"/>
    <path class="st4" d="M38.3,118.81c.15-.11.87-.68.99-1.79.15-1.22.15-5.85.15-7.64,0-.38-.3-1.06-.57-1.18-.42-.15-.87-.34-1.29-.49-.53-.19-.87-.49-.87-.8,0-.27.46-.68.99-.68,1.56,0,3.12-.08,4.75-.11.15,0,.42.49.42.91,0,1.63-.04,9.73.04,11.4.04,1.37.49,1.48.61,1.48.27,0,1.56-.19,1.94-.23.11-.04.34.46.34.65,0,.68-.46,1.03-.68,1.06-.95.11-2.58.34-3.27.53-.68.15-1.33.3-1.71.3-.19,0-.46-.42-.46-.68-.04-.27-.08-1.18-.11-1.67,0-.08-.23-.27-.34-.19-1.79,1.33-3.61,2.47-5.93,2.47-1.22,0-2.47-.68-3.08-1.33-.38-.38-.84-1.33-.84-2.17v-9.16c0-.46-.34-1.1-1.41-1.67-.42-.23-.84-.53-.84-.91,0-.53.99-.68,1.18-.68.84,0,3.8-.19,4.07-.19s.38.42.38,1.25c0,1.63-.04,6.42.04,8.97.04,1.98.42,2.47.91,2.85.53.38,1.44.46,1.98.46,1.06,0,2.24-.53,2.62-.76Z"/>
    <path class="st4" d="M59.35,108.13c.49.76.68,1.75.68,2.7,0,.42-.68,1.18-1.06,1.18-.27,0-7.41.11-8.09.11-.11,0-.49.23-.61.38-.11.27-.15.87-.15,1.1,0,3.31,2.43,5.81,5.7,5.81,1.44,0,3.08-.91,3.8-1.41.19-.11.49.11.49.49,0,.49-.23.91-.53,1.29-1.44,1.52-3.5,2.36-5.51,2.36-4.79,0-7.52-3.27-7.52-7.9,0-3.15,1.48-5.74,3.72-7.18,1.25-.8,2.85-1.29,4.45-1.29,1.9,0,3.69.84,4.64,2.36ZM50.54,110.26c-.04.15.11.38.23.42.38.04,1.56.08,2.7.08,1.37,0,3.04-.08,3.04-1.37,0-1.06-.84-2.17-2.81-2.17-1.03,0-2.74,1.25-3.15,3.04Z"/>
    <path class="st4" d="M82.68,107.48c.91.99,1.41,3,1.41,5.05.04,1.22.15,5.59.15,6.16,0,.84.15,1.18,1.33,1.6.61.19.95.53.95.87,0,.49-.68.65-1.1.65-1.03,0-1.9-.11-2.96-.11-.8,0-1.82.11-2.85.11-.65,0-1.14-.3-1.14-.65,0-.23.27-.49.87-.72,1.18-.42,1.41-.72,1.41-2.09,0-.91.04-4.9,0-6.57-.04-1.1-.3-1.9-.8-2.55-.53-.65-1.75-1.22-2.74-1.22-1.67,0-2.54.34-3.23,1.03-.08.08-.38.72-.38.91,0,.8,0,8.36.08,9.23,0,.34.34.72,1.25,1.18.46.23.76.42.76.65,0,.38-.42.8-.99.8-.72,0-1.9-.11-2.92-.11s-2.58.11-3.23.11c-.8,0-1.14-.3-1.14-.65,0-.38.38-.61.99-.8,1.18-.38,1.6-.8,1.67-1.56.08-.72.23-2.39.23-10.49,0-5.02-.08-6.54-.15-7.64-.08-.8-.27-1.14-.8-1.44-.68-.42-.99-.84-.99-1.03,0-.42.46-.68.8-.8.61-.19,2.05-.72,2.93-1.06.53-.23.87-.34,1.22-.34.15,0,.38.27.38,1.75,0,1.37-.08,7.71-.08,9.42,0,.23.19.34.27.3.46-.27,1.41-.91,2.51-1.33.68-.27,1.44-.38,2.36-.38,2.17,0,3.27.91,3.95,1.71Z"/>
    <path class="st4" d="M86.45,106.08c.42,0,3.5.15,4.25.15.91,0,1.44-.04,1.82-.04.61,0,.95.27.95.61,0,.27-.19.57-.87.76-.76.27-.72.49-.49,1.25.42,1.18,2.2,5.93,3.19,7.94.11.19.38.11.42,0,1.06-2.66,2.36-6,2.92-7.71.27-.72.04-1.1-.99-1.44-.53-.15-.99-.49-.99-.8,0-.38.46-.65.99-.65.8,0,1.37.08,1.94.08.72,0,2.2-.15,2.96-.15.42,0,.87.23.87.65,0,.34-.34.61-.95.84-1.03.34-1.52.91-2.2,2.24-.99,2.09-3.38,8.02-4.22,10.11-1.25,3.15-3.42,8.47-3.8,9.65-.08.23-.99,1.1-1.94,1.1-1.25,0-2.13-.87-2.13-2.2,0-.99.87-2.05,2.09-2.05h1.03c.27,0,.57-.46.72-.84.15-.38,1.03-2.43,1.33-3.42.08-.23.08-.87,0-1.1-.23-.68-.57-1.44-.91-2.28-.99-2.81-3.08-7.83-3.95-9.54-.53-1.06-1.37-1.44-1.98-1.71-.65-.23-.99-.53-.99-.87,0-.23.34-.57.91-.57Z"/>
    <path class="st4" d="M114.83,105.96c.11.04.3-.23.3-.42,0-.23-.08-4.6-.08-5.4-.11-1.25-.27-1.37-1.9-1.79-.38-.11-.76-.46-.76-.8,0-.11.23-.42.84-.61.99-.3,4.48-.95,4.98-.95.34,0,.46.65.46,2.32,0,2.39-.15,7.48-.15,10.56,0,7.64.11,8.17.15,9.27.04,1.25.42,1.6.76,1.6s1.48-.15,2.01-.27c.19-.04.49.3.49.68,0,.34-.42.95-.84,1.06-2.58.53-4.52,1.14-5.09,1.14-.19,0-.65-.23-.68-.46-.08-.42-.08-1.18-.11-1.56,0-.08-.15-.15-.3-.08-1.67.99-3.42,1.86-4.67,1.86-4.22,0-7.18-3.15-7.18-7.48,0-4.1,2.36-6.12,4.22-7.33,1.6-1.03,3.99-1.56,5.32-1.56,1.06,0,1.79.11,2.24.19ZM108.64,108.51c-1.03.91-1.71,2.55-1.71,4.9,0,2.85,1.79,6.35,5.09,6.35,1.06,0,2.43-.57,2.74-.87.11-.08.38-.68.38-.95.04-2.47,0-4.64,0-7.1,0-.38-.15-1.33-.3-1.52-.46-.61-1.67-1.82-3.76-1.82-.8,0-1.71.38-2.43,1.03Z"/>
    <path class="st4" d="M123.38,107.18c.68-.3,2.01-.87,2.81-1.29.49-.23.8-.38,1.14-.38.11,0,.42.42.42.57.04.53.08,1.29.11,1.86,0,.11.27.27.38.11,1.1-1.22,2.58-2.28,4.07-2.28,1.1,0,2.17.8,2.17,1.25,0,.84-.99,1.94-1.56,2.43-.23.19-.53.34-.68.34-.23,0-.49-.11-.87-.38-.3-.23-.95-.53-1.44-.53-.61,0-1.14.19-1.6.76-.15.19-.34.61-.34.84,0,.38-.04,5.89.04,7.22.15,1.75.42,2.13,2.09,2.58.84.23,1.37.53,1.37.87,0,.38-.53.68-.99.68-1.18,0-3.23-.15-4.33-.15-1.33,0-2.01.11-3.08.11-.68,0-1.06-.38-1.06-.65,0-.42.38-.65.87-.84,1.44-.53,1.56-1.03,1.6-2.13.08-1.75.11-6.08.11-8.09,0-.23-.08-.49-.95-1.14-.42-.34-.84-.68-.84-.91,0-.38.27-.72.57-.87Z"/>
    <path class="st4" d="M145.92,107.33c.72.68,1.29,2.51,1.29,3.23,0,1.44-.15,2.93-.15,7.18,0,1.25.65,1.82,1.33,1.82.3,0,.95-.15,1.29-.3.11-.08.3.3.3.57,0,.23-.27.95-.34,1.06-.65.8-1.6,1.37-2.89,1.37-1.03,0-2.24-.34-2.81-2.32,0-.04-.3-.23-.38-.19-.76.57-1.94,1.29-2.81,1.79-.68.38-1.41.57-2.05.57-1.18,0-3.69-1.33-3.69-4.48,0-.91.3-1.52.57-1.86.53-.68,1.37-1.03,1.56-1.06,3.65-.87,5.51-1.37,6.42-1.82.19-.08.42-.42.42-.61v-1.44c0-.42,0-.65-.11-.95-.53-1.44-2.05-2.09-3.19-2.09-.76,0-1.52.34-1.63.53-.15.19-.3.8-.38,1.94-.04.38-.23.68-.38.8-.19.19-.84.34-1.06.34-.42,0-1.44-.08-1.79-.23-.19-.08-.46-.49-.46-.68,0-.68,1.18-1.86,2.81-2.96,1.44-.99,3.23-1.75,4.52-1.75,1.41,0,2.47.46,3.61,1.56ZM143.49,118.27c.11-.27.3-.65.3-1.1l.08-2.43c0-.15-.19-.23-.3-.23-1.06.19-3.12.68-3.88.95-1.03.38-1.37.8-1.37,1.75,0,1.18,1.14,2.28,2.47,2.28.8,0,1.94-.46,2.7-1.22Z"/>
    <path class="st4" d="M151.81,106.91c.72-.3,1.9-.68,2.66-1.06.46-.23.99-.38,1.06-.38.11,0,.61.15.61.46,0,.19-.04,1.29-.08,1.67,0,.19.19.19.3.11,1.14-.8,3-1.94,5.36-1.94,1.98,0,3,1.1,3.5,1.82.61.87,1.14,2.47,1.18,5.09.04,1.86.04,3.88.11,5.59.04,1.14.27,1.48,1.03,1.82.8.34,1.1.72,1.1,1.06,0,.46-.65.65-1.14.65s-1.82-.11-2.96-.11-2.01.11-2.47.11c-.57,0-1.06-.15-1.06-.65,0-.23.15-.53.8-.76.95-.38,1.18-.72,1.22-1.67.04-1.86.04-3.5.04-5.17,0-2.85-.3-3.88-.68-4.37-.38-.49-1.14-1.03-2.58-1.03-1.33,0-2.39.34-3.08.8-.08.04-.49.49-.49.95v8.7c0,.61,0,1.06,1.41,1.63.76.27.99.61.99.91,0,.34-.38.65-1.06.65-1.25,0-2.43-.11-3.34-.11-1.18,0-2.55.11-3.15.11-.72,0-1.14-.19-1.14-.57,0-.42.46-.72.84-.84,1.71-.57,1.9-.99,1.94-1.9.15-1.75.23-4.6.23-8.36,0-.61-.34-.99-1.29-1.63-.46-.34-.53-.49-.53-.61,0-.27.3-.8.72-.99Z"/>
    <path class="st4" d="M180.04,106.34c.49.15,1.03.27,1.41.27.46,0,3.84-.04,4.07-.04.34,0,.57,1.06.57,1.6,0,.38-.38.68-.46.68-.83,0-2.39-.19-3.23-.23.42.72.72,1.71.72,2.62,0,1.71-.65,3.04-2.09,4.26-1.18.99-3.12,1.52-4.79,1.52-.23,0-.84-.04-1.06-.04-.27,0-.38.08-.53.19-.34.19-.76.76-.76,1.1,0,1.03,1.25,1.25,1.44,1.25,2.13,0,4.98.15,6.16.19.72,0,1.71.15,2.85,1.06.8.65,1.52,1.98,1.52,3.23,0,2.43-1.79,4.48-3.38,5.47-1.56.91-3.38,1.75-6.42,1.75-2.58,0-6.92-1.25-6.92-4.83,0-.65.53-1.75.87-2.01.57-.46,1.67-1.22,2.32-1.71.11-.08.15-.34.04-.38-.34-.08-.72-.23-1.06-.57-.49-.38-1.18-1.1-1.18-2.62,0-.08.11-.34.19-.34.87-.42,2.36-1.52,2.74-1.98.15-.15.11-.3.04-.38-1.56-.95-2.89-2.32-2.89-4.71,0-2.01.76-3.27,2.17-4.41.8-.65,2.89-1.52,4.41-1.52,1.41,0,2.66.38,3.27.57ZM181.03,128.46c1.03-.65,1.82-1.52,1.82-3-.04-1.67-1.41-2.32-2.7-2.55-.65-.11-1.94-.23-3.34-.23-1.71,0-2.81.46-2.93.49-1.14.68-1.44,1.48-1.44,2.36,0,2.55,2.74,3.69,5.4,3.69.76,0,2.36-.23,3.19-.76ZM173.62,110.98c0,3.27,1.94,4.48,3.53,4.48.84,0,1.63-.49,1.86-.8.27-.38.84-1.67.84-3.27,0-1.98-1.03-4.1-3.53-4.1-1.82,0-2.7,1.94-2.7,3.69Z"/>
    <path class="st4" d="M199.61,108.13c.49.76.68,1.75.68,2.7,0,.42-.68,1.18-1.06,1.18-.27,0-7.41.11-8.09.11-.11,0-.49.23-.61.38-.11.27-.15.87-.15,1.1,0,3.31,2.43,5.81,5.7,5.81,1.44,0,3.08-.91,3.8-1.41.19-.11.49.11.49.49,0,.49-.23.91-.53,1.29-1.44,1.52-3.5,2.36-5.51,2.36-4.79,0-7.52-3.27-7.52-7.9,0-3.15,1.48-5.74,3.72-7.18,1.25-.8,2.85-1.29,4.45-1.29,1.9,0,3.69.84,4.64,2.36ZM190.79,110.26c-.04.15.11.38.23.42.38.04,1.56.08,2.7.08,1.37,0,3.04-.08,3.04-1.37,0-1.06-.84-2.17-2.81-2.17-1.03,0-2.74,1.25-3.15,3.04Z"/>
    <path class="st4" d="M213.17,107.33c.72.68,1.29,2.51,1.29,3.23,0,1.44-.15,2.93-.15,7.18,0,1.25.65,1.82,1.33,1.82.3,0,.95-.15,1.29-.3.11-.08.3.3.3.57,0,.23-.27.95-.34,1.06-.65.8-1.6,1.37-2.89,1.37-1.03,0-2.24-.34-2.81-2.32,0-.04-.3-.23-.38-.19-.76.57-1.94,1.29-2.81,1.79-.68.38-1.41.57-2.05.57-1.18,0-3.69-1.33-3.69-4.48,0-.91.3-1.52.57-1.86.53-.68,1.37-1.03,1.56-1.06,3.65-.87,5.51-1.37,6.42-1.82.19-.08.42-.42.42-.61v-1.44c0-.42,0-.65-.11-.95-.53-1.44-2.05-2.09-3.19-2.09-.76,0-1.52.34-1.63.53-.15.19-.3.8-.38,1.94-.04.38-.23.68-.38.8-.19.19-.84.34-1.06.34-.42,0-1.44-.08-1.79-.23-.19-.08-.46-.49-.46-.68,0-.68,1.18-1.86,2.81-2.96,1.44-.99,3.23-1.75,4.52-1.75,1.41,0,2.47.46,3.61,1.56ZM210.74,118.27c.11-.27.3-.65.3-1.1l.08-2.43c0-.15-.19-.23-.3-.23-1.06.19-3.12.68-3.88.95-1.03.38-1.37.8-1.37,1.75,0,1.18,1.14,2.28,2.47,2.28.8,0,1.94-.46,2.7-1.22Z"/>
    <path class="st4" d="M63.69,140.08c.42.11.91.23,1.25.34.23.08.61.65.65.8.08.27.08,1.63.08,2.13,0,.3-.3,1.06-.8,1.06-.15,0-.53-.27-.95-.99-.84-1.52-2.05-2.2-2.89-2.2s-2.09.8-2.09,2.13c0,1.75,1.44,2.24,3.61,3.34,2.09,1.1,3.68,2.32,3.68,4.52s-1.48,3.57-2.92,4.22c-1.14.53-2.39.72-3.34.72-2.36,0-3.53-.53-3.95-.95-.38-.38-.8-2.17-.8-2.85,0-.99.3-1.22.72-1.22.23,0,.53.27,1.03,1.03,1.14,1.71,2.47,2.43,3.53,2.43,1.6,0,2.47-1.1,2.47-2.2,0-.72-.42-1.48-1.37-2.09-.99-.61-1.82-.99-2.93-1.63-1.29-.76-2.77-1.98-2.77-4.22,0-1.9,1.06-3,2.01-3.65.87-.57,2.51-1.03,3.34-1.03.99,0,1.86.15,2.43.3Z"/>
    <path class="st4" d="M77.94,140.08c.23,0,.46.38.46.61.04.42.04,1.06,0,1.25-.08.38-.42.57-.87.57-1.41,0-3.34.04-4.22.04-.08,0-.27.19-.27.57l-.11,6.8c-.04,1.71.15,2.28.61,2.81.49.53,1.48.8,1.98.8.65,0,1.18-.15,1.71-.3.34-.08.61-.23.83-.23.15,0,.38.27.38.57,0,.46-.3.87-1.03,1.44-1.14.91-2.93,1.18-3.88,1.18-1.1,0-2.62-.49-3.5-1.79-.3-.46-.53-1.33-.53-2.7,0-2.66.19-4.9.19-8.51,0-.42-.11-.46-1.14-.65-.61-.08-1.14-.91-1.14-1.1s.42-.53.8-.8c.72-.57,2.17-1.52,2.89-2.39.57-.72,1.37-.95,1.6-.95.15,0,.38.38.38.57,0,.42-.04,1.71-.04,1.94,0,.15.08.42.34.42.42,0,3.69-.15,4.56-.15Z"/>
    <path class="st4" d="M80.86,141.07c1.9-.68,3.72-1.33,4.37-1.33.15,0,.42.53.42.72v6.88c.04,4.98.08,5.59.11,5.93.08.34.23.76,1.52,1.1.53.19.95.53.95.95,0,.34-.57.49-1.14.49-.8,0-2.43-.11-3.27-.11-1.94,0-2.81.11-3.34.11-.72,0-1.18-.23-1.18-.61,0-.34.42-.65.95-.76,1.63-.46,1.71-.72,1.86-2.28.08-.8.19-3.46.19-5.62,0-.76-.04-2.55-.08-2.77,0-.27-.34-.72-1.41-1.41-.27-.15-.46-.61-.46-.8s.3-.42.49-.49ZM85.04,132.4c.53.57.72,1.37.72,1.63,0,1.67-1.44,2.28-2.17,2.28-.61,0-1.33-.34-1.71-.91-.27-.38-.42-.68-.42-1.22,0-1.29.95-2.28,2.36-2.28.57,0,.95.23,1.22.49Z"/>
    <path class="st4" d="M99.21,140.08c.23,0,.46.38.46.61.04.42.04,1.06,0,1.25-.08.38-.42.57-.87.57-1.41,0-3.34.04-4.22.04-.08,0-.27.19-.27.57l-.11,6.8c-.04,1.71.15,2.28.61,2.81.49.53,1.48.8,1.98.8.65,0,1.18-.15,1.71-.3.34-.08.61-.23.83-.23.15,0,.38.27.38.57,0,.46-.3.87-1.03,1.44-1.14.91-2.93,1.18-3.88,1.18-1.1,0-2.62-.49-3.5-1.79-.3-.46-.53-1.33-.53-2.7,0-2.66.19-4.9.19-8.51,0-.42-.11-.46-1.14-.65-.61-.08-1.14-.91-1.14-1.1s.42-.53.8-.8c.72-.57,2.17-1.52,2.89-2.39.57-.72,1.37-.95,1.6-.95.15,0,.38.38.38.57,0,.42-.04,1.71-.04,1.94,0,.15.08.42.34.42.42,0,3.69-.15,4.56-.15Z"/>
    <path class="st4" d="M113.43,140.91c.11.15.38.68.38.99,0,1.14-.72,2.05-1.29,2.05-.23,0-.8-.34-1.33-.87-1.03-1.03-2.2-1.48-3.57-1.48-1.03,0-1.82.46-2.47,1.18-.8.91-1.25,2.39-1.25,4.37,0,4.03,2.93,6.12,5.58,6.12,1.41,0,2.55-.46,3.8-1.56.19-.19.65.04.65.38,0,.42-.11.95-.49,1.52-1.25,1.67-3.5,2.55-5.66,2.55-1.9,0-3.65-.65-5.13-1.98-.99-.87-2.2-3.08-2.2-5.62,0-3.5,1.79-5.89,3.91-7.26,1.9-1.18,3.57-1.52,5.05-1.52,2.58,0,3.72.8,4.03,1.14Z"/>
    <path class="st4" d="M129.99,141.48c.91.99,1.41,3,1.41,5.05.04,1.22.15,5.59.15,6.16,0,.84.15,1.18,1.33,1.6.61.19.95.53.95.87,0,.49-.68.65-1.1.65-1.03,0-1.9-.11-2.96-.11-.8,0-1.82.11-2.85.11-.65,0-1.14-.3-1.14-.65,0-.23.27-.49.87-.72,1.18-.42,1.41-.72,1.41-2.09,0-.91.04-4.9,0-6.57-.04-1.1-.3-1.9-.8-2.55-.53-.65-1.75-1.22-2.74-1.22-1.67,0-2.54.34-3.23,1.03-.08.08-.38.72-.38.91,0,.8,0,8.36.08,9.23,0,.34.34.72,1.25,1.18.46.23.76.42.76.65,0,.38-.42.8-.99.8-.72,0-1.9-.11-2.92-.11s-2.58.11-3.23.11c-.8,0-1.14-.3-1.14-.65,0-.38.38-.61.99-.8,1.18-.38,1.6-.8,1.67-1.56.08-.72.23-2.39.23-10.49,0-5.02-.08-6.54-.15-7.64-.08-.8-.27-1.14-.8-1.44-.68-.42-.99-.84-.99-1.03,0-.42.46-.68.8-.8.61-.19,2.05-.72,2.93-1.06.53-.23.87-.34,1.22-.34.15,0,.38.27.38,1.75,0,1.37-.08,7.71-.08,9.42,0,.23.19.34.27.3.46-.27,1.41-.91,2.51-1.33.68-.27,1.44-.38,2.36-.38,2.17,0,3.27.91,3.95,1.71Z"/>
    <path class="st4" d="M148,142.13c.49.76.68,1.75.68,2.7,0,.42-.68,1.18-1.06,1.18-.27,0-7.41.11-8.09.11-.11,0-.49.23-.61.38-.11.27-.15.87-.15,1.1,0,3.31,2.43,5.81,5.7,5.81,1.44,0,3.08-.91,3.8-1.41.19-.11.49.11.49.49,0,.49-.23.91-.53,1.29-1.44,1.52-3.5,2.36-5.51,2.36-4.79,0-7.52-3.27-7.52-7.9,0-3.15,1.48-5.74,3.72-7.18,1.25-.8,2.85-1.29,4.45-1.29,1.9,0,3.69.84,4.64,2.36ZM139.19,144.26c-.04.15.11.38.23.42.38.04,1.56.08,2.7.08,1.37,0,3.04-.08,3.04-1.37,0-1.06-.84-2.17-2.81-2.17-1.03,0-2.74,1.25-3.15,3.04Z"/>
    <path class="st4" d="M151.5,141.18c.68-.3,2.01-.87,2.81-1.29.49-.23.8-.38,1.14-.38.11,0,.42.42.42.57.04.53.08,1.29.11,1.86,0,.11.27.27.38.11,1.1-1.22,2.58-2.28,4.07-2.28,1.1,0,2.17.8,2.17,1.25,0,.84-.99,1.94-1.56,2.43-.23.19-.53.34-.68.34-.23,0-.49-.11-.87-.38-.3-.23-.95-.53-1.44-.53-.61,0-1.14.19-1.6.76-.15.19-.34.61-.34.84,0,.38-.04,5.89.04,7.22.15,1.75.42,2.13,2.09,2.58.84.23,1.37.53,1.37.87,0,.38-.53.68-.99.68-1.18,0-3.23-.15-4.33-.15-1.33,0-2.01.11-3.08.11-.68,0-1.06-.38-1.06-.65,0-.42.38-.65.87-.84,1.44-.53,1.56-1.03,1.6-2.13.08-1.75.11-6.08.11-8.09,0-.23-.08-.49-.95-1.14-.42-.34-.84-.68-.84-.91,0-.38.27-.72.57-.87Z"/>
  </g>
  <g>
    <path class="st3" d="M150.11,73.24c-.05-.07-.04-.16-.07-.24-.18-.52-.35-1.05-.56-1.56-.11-.26-.36-.48-.42-.75-.14-.59-.19-1.19-.28-1.78,0-.06,0-.13-.02-.18-.24-.44-.18-.93-.21-1.4-.15-.3-.3-.6-.45-.9-.16-.32-.3-.66-.48-.97-.2-.34-.53-.61-.67-.97-.3-.76-.96-1.19-1.54-1.62-1.05-.77-2.27-1.22-3.54-1.54-.75-.19-1.51-.35-2.27-.51-1.18-.25-2.36-.55-3.55-.72-.81-.12-1.6-.32-2.39-.51-1.04-.25-1.7-1.08-2.55-1.61-.46-.29-.83-.7-1.32-.97-.93-.52-1.95-.8-2.94-1.09-1.52-.44-3.05-.08-4.55.21-.62.12-1.2.48-1.82.6-.87.17-1.55.67-2.28,1.09-.38.22-.73.51-1.08.78-.44.34-.91.66-1.28,1.07-.72.8-1.64,1.31-2.53,1.87-.59.38-1.24.67-1.86,1-.49.26-.97.54-1.47.78-.13.06-.32.2-.45-.02,0-.85,0-1.71,0-2.56,0-.24.01-.49.01-.73,0-.5,0-1-.01-1.49h0c.05-.24.13-.47.13-.71,0-.58-.03-1.17-.06-1.75-.03-.5-.09-1-.13-1.5,0-.02,0-.04,0-.06v-.47c-.01-.39.31-.78-.01-1.16.05-.14.13-.25.13-.37.01-.83.02-1.67,0-2.5,0-.56-.05-1.13-.06-1.69,0-.34,0-.68,0-1.02-.02,0-.03,0-.05,0,.06-.16.11-.31.16-.46.25.13-1.27-.91-2.29.23-.02.51.02,1.02-.1,1.54-.08.35-.03.72-.04,1.09-.03.02-.05.05-.08.07h0c-.03.22-.05.45-.09.67-.07.43-.18.85-.22,1.29-.06.59-.09,1.18-.12,1.77,0,.2.04.41.06.61,0,.02,0,.05,0,.07v.22c.01.13.02.26,0,.39-.04.37-.1.74-.15,1.11-.02.08-.07.16-.07.24-.03.82-.05,1.64-.07,2.46,0,.1,0,.2,0,.3.01.43.02.86.03,1.28,0,.05,0,.1,0,.14-.09.71-.22,1.42-.24,2.13-.03.98.03,1.96.06,2.94.02.89.03,1.78.08,2.67.02.36.14.72.21,1.08-.03.54-.06,1.07-.09,1.6-.3.1-.49-.02-.7-.19-.25-.2-.51-.39-.79-.56-.19-.11-.43-.14-.6-.27-.68-.5-1.34-1.01-2-1.53-.27-.21-.59-.39-.81-.65-.39-.46-.74-.96-.7-1.62.02-.24.05-.49.02-.73-.09-.72-.19-1.44-.32-2.16-.1-.56-.21-1.13-.4-1.68-.17-.52-.44-1.01-.43-1.58,0-.04,0-.08-.02-.11-.21-.44-.42-.88-.64-1.31-.27-.55-.54-1.11-.83-1.65-.47-.88-.83-1.83-1.69-2.44-.02-.01-.02-.05-.03-.06-.19-.19-.38-.38-.56-.58-.26-.29-.56-.56-.77-.89-.15-.22-.28-.4-.55-.44-.16-.19-.31-.41-.5-.57-.19-.17-.4-.33-.64-.42-.25-.11-.54-.14-.81-.2-.03,0-.05,0-.08,0-.17-.21-.38-.35-.67-.29-.34-.1-.7-.15-1-.31-.48-.27-1.01-.25-1.51-.28-.5-.03-1,.04-1.51.07-.51.02-1.02.02-1.53.08-.99.12-1.97.28-2.95.42-.53.08-1.05.16-1.57.25-.81.14-1.64.25-2.44.45-.58.15-1.16.23-1.75.22-.16,0-.33-.01-.48.04-.64.23-1.26-.02-1.86.02-.43-.02-.83-.04-1.24-.06-.54-.03-1.09-.02-1.62-.1-.35-.06-.67-.06-1.01.03-.34.08-.68.06-1.04-.06-.59-.19-1.2-.38-1.83-.11-.08.04-.2.01-.3.01-.61,0-1.21,0-1.93,0,.13.36.23.65.34.93.26.68.86,1.16.93,1.97.07.8.33,1.59.54,2.38.16.62.29,1.27.58,1.84.34.68.64,1.36.88,2.07.08.25.16.5.27.73.21.47.45.94.64,1.42.2.48.3,1,.55,1.45.4.75.85,1.48,1.32,2.19.65.96,1.32,1.91,2.01,2.84.4.53.84,1.05,1.31,1.51.46.44.97.84,1.5,1.19.71.47,1.45.88,2.19,1.31.64.38,1.35.54,2.06.69.8.17,1.6.4,2.4.41.78.01,1.57-.17,2.34-.34.89-.21,1.77-.48,2.64-.77.56-.19,1.08-.5,1.64-.7.77-.28,1.57-.48,2.35-.75.95-.32,1.88-.7,2.84-1.01.82-.26,1.66-.49,2.5-.69.4-.09.82-.14,1.23-.12.8.04,1.54.34,2.27.65.13.06.29.09.4.17.53.39,1.04.79,1.57,1.18.2.15.41.27.61.4.4.27.8.53,1.18.82.25.19.46.43.69.65-.05.55-.1,1.1-.15,1.64-.02.5-.05,1-.07,1.49-.03.48-.06.95-.08,1.43-.01.22.02.45-.04.65-.19.78-.3,1.56-.2,2.38.12,1,.12,2.02.18,3.03,0,.05,0,.1,0,.15.02.02.04.04.06.07-.06.5,0,.98.22,1.44.05.21.07.44.15.64.25.62.73,1.05,1.28,1.4.49.31.61.3,1.03-.08.09-.08.2-.12.31-.19.02-.37.05-.74.07-1.11,0-.03,0-.06,0-.08,0-.04,0-.09,0-.13,0-.62.51-1.22.12-1.84.28-.45.07-.9.09-1.35.01-.44.07-.88.1-1.32,0-.6,0-1.2,0-1.8,0-.24.03-.49.04-.73,0-.28,0-.56,0-.84,0-.45.02-.89.03-1.34-.03-.15-.05-.3-.08-.45.04-.91.08-1.82.1-2.72.03-1.15.04-2.3.04-3.45,0-.44-.02-.89-.04-1.33-.02-.4-.06-.81-.07-1.21,0-.23.03-.46.05-.69.07-.66.07-1.33.08-1.99,0-.1.1-.25.19-.29.37-.15.75-.3,1.14-.39.41-.09.84-.06,1.25-.16.76-.18,1.49-.46,2.25-.61.52-.11,1.11-.11,1.47.37.34.45.63.95.88,1.46.22.45.31.98.56,1.41.43.73.94,1.41,1.44,2.11.22.3.45.6.7.86.74.78,1.47,1.57,2.26,2.29.48.43,1.09.72,1.61,1.1.69.51,1.5.77,2.3,1.03.71.22,1.48.28,2.22.41.14.03.29.05.43.07.1-.07.19-.13.28-.2.37.07.74.03,1.1.08.52.08,1.01.05,1.5-.14.13-.05.29-.02.44-.03.08,0,.17,0,.25-.03.43-.13.84-.34,1.28-.38.54-.05.99-.28,1.43-.55.61-.18,1.22-.35,1.62-.7.53-.17.95-.3,1.36-.45.12-.05.22-.18.32-.27.36-.13.61-.48,1.06-.44.18.02.39-.05.56-.13.56-.24,1.14-.27,1.71-.12.87.23,1.74.45,2.65.48.54.02,1.09.14,1.62.24.34.06.67.16,1,.26.27.08.53.19.79.29.1.04.19.11.3.15.57.25,1.14.52,1.73.75.32.12.62.38,1,.27.17-.38.23-.73-.01-1.08ZM95.76,68.44c-.87.33-1.74.66-2.6,1-1.02.4-2.02.85-3.06,1.21-1.04.36-2.03.82-3.02,1.28-.37.18-.84.23-1.26.21-.88-.04-1.75-.13-2.62-.27-.39-.06-.75-.3-1.12-.46-.39-.16-.78-.32-1.17-.49-.22-.1-.42-.23-.63-.35-.59-.41-1.34-.59-1.7-1.33-.07-.15-.25-.25-.38-.37-.03-.02-.06-.04-.09-.07-.28-.31-.56-.61-.75-.83-.18-.35-.25-.66-.44-.84-.62-.61-1.14-1.29-1.63-2.01-.16-.25-.36-.47-.56-.69-.42-.46-.47-1.1-.77-1.61-.1-.17-.24-.32-.36-.48-.05-.06-.14-.15-.13-.2.11-.41-.22-.63-.39-.91-.1-.16-.19-.31-.29-.47-.18-.28-.37-.56-.55-.84-.04.02-.07.04-.11.06-.36-1.21-.72-2.42-1.11-3.71.37.32.68.61,1.02.87.55.42,1.12.8,1.67,1.21.4.29.78.61,1.17.92.54.44,1.07.88,1.61,1.32.27.22.53.46.82.65.25.16.55.25.82.4.23.13.43.31.66.45.89.53,1.78,1.07,2.85,1.2.37.04.72.26,1.09.31.77.09,1.56.11,2.34.17.38.03.76.07,1.14.1.68.06,1.37.07,2.05.18.42.07.83.27,1.23.43.46.18.92.37,1.35.6.39.21.73.49,1.12.71.84.47,1.69.92,2.53,1.38.27.15.51.34.77.49.33.19.66.37,1.07.6-.24.07-.4.11-.55.16ZM98.47,66.27c-.34-.19-.58-.35-.83-.46-.24-.1-.51-.13-.75-.24-.23-.1-.44-.26-.64-.41-.4-.29-.78-.62-1.19-.9-.4-.27-.84-.5-1.24-.77-.13-.09-.21-.26-.34-.35-.4-.24-.79-.5-1.2-.72-.25-.14-.52-.27-.79-.35-.56-.17-1.13-.32-1.7-.45-.18-.04-.38-.03-.58-.04-.73-.01-1.46-.02-2.19-.04-.45-.01-.89-.06-1.34-.06-.87,0-1.7-.22-2.52-.48-.14-.05-.31-.02-.45-.06-.23-.1-.47-.2-.7-.31-.59-.29-1.17-.58-1.76-.88-.07-.03-.15-.08-.17-.14-.22-.52-.7-.76-1.13-1.03-.57-.36-1.01-.89-1.56-1.25-.33-.22-.74-.32-1.11-.49-.19-.08-.39-.16-.55-.29-.5-.38-.98-.79-1.47-1.18-.12-.09-.27-.14-.38-.23-.12-.11-.22-.26-.34-.41.13-.07.18-.12.24-.12.82-.11,1.63-.03,2.45,0,.87.04,1.76.08,2.61-.33.61-.3,1.28-.48,1.92-.73.38-.15.74-.32,1.12-.48.61-.25,1.21-.17,1.84-.05.66.13,1.34.13,2.01.19.19.02.38.06.6.09.15,0,.32.02.49,0,.62-.08,1.26-.33,1.85-.23.67.12,1.32.38,2.02.36.11,0,.23.12.34.2.85.6,1.81,1.07,2.51,1.87.32.37.61.78.9,1.18.67.94,1.34,1.86,1.97,2.82.32.48.54,1.03.8,1.55.15.3.3.6.4.92.17.55.31,1.12.44,1.68.17.7.33,1.4.47,2.1.03.13-.03.27-.06.49ZM143.99,69.23c-.55-.03-1.09-.11-1.64-.1-.63,0-1.27.06-1.9.15-.6.08-1.19.24-1.79.36-.57.11-1.14.2-1.71.32-.58.13-1.15.28-1.73.42-.13.03-.25.1-.37.16h-.04s-.04,0-.04,0c-.1.02-.2.05-.3.07-1.58.38-3.16.82-4.76,1.14-1.37.27-2.73.04-4.03-.47-1.15-.45-2.08-1.22-2.89-2.13-.29-.32-.59-.64-.88-.96-.13-.15-.22-.32-.34-.48-.11-.14-.21-.28-.34-.39-.23-.19-.37-.41-.49-.71-.15-.39-.48-.71-.72-1.06-.3-.43-.61-.86-.88-1.31-.15-.25-.22-.54-.35-.8-.04-.08-.16-.13-.25-.19-.1-.07-.21-.12-.35-.2.26-.14.46-.25.66-.36.28.02.57.01.85.05.7.1,1.39.27,2.09.3.65.03,1.23.2,1.84.41,1.4.47,2.48,1.45,3.73,2.17.54.3,1.09.59,1.66.81.44.17.93.24,1.4.3,1.04.12,2.09.23,3.14.29.6.03,1.21-.03,1.82-.05h0c.08,0,.15,0,.23,0,.58.06,1.15.13,1.73.19.53.06,1.07.1,1.6.17.77.11,1.54.19,2.29.37.64.15,1.27.37,1.86.65.44.21.8.57,1.2.87-.1.01-.21.05-.31.04ZM145.56,67.26c-.35-.23-.75-.41-1.05-.69-.48-.44-1.08-.61-1.65-.8-.69-.23-1.42-.34-2.13-.49-.25-.05-.51-.08-.77-.12-.33-.06-.66-.13-.99-.17-.33-.03-.67,0-1-.05-.59-.08-1.17-.25-1.77-.3-1.09-.1-2.19-.14-3.29-.23-.59-.05-1.18-.12-1.76-.23-.92-.17-1.86-.3-2.73-.6-.86-.3-1.67-.75-2.46-1.21-.93-.54-1.94-.8-2.96-1.01-.57-.12-1.17-.13-1.75-.18-.59-.05-1.18-.09-1.77-.13-.28.16-.56-.07-.84-.03-.44.06-.88.11-1.32.17-.06,0-.12,0-.22-.08.31-.26.6-.53.92-.79.71-.58,1.48-1.08,2.36-1.39.56-.19,1.14-.32,1.7-.52,1.06-.39,2.16-.52,3.27-.56.58-.02,1.19.12,1.74.31,1.11.4,2.1,1.05,3.02,1.78.54.43,1.03.94,1.62,1.29.57.35,1.22.61,1.87.8.79.24,1.62.38,2.43.52.54.1,1.11.1,1.65.2.87.16,1.74.37,2.61.55.96.2,1.86.55,2.75.96.76.35,1.33.9,1.85,1.51.29.34.49.77.72,1.16.04.07.04.18.06.27-.02.02-.05.04-.07.06Z"/>
    <path class="st3" d="M106.04,82.73s-.02-.04-.03-.05c.01,0,.02.03.03.05h0Z"/>
    <path class="st3" d="M108.9,82.03h0s.05-.01.05-.03c0,.01-.03.02-.05.03Z"/>
    <path class="st3" d="M108.96,81.1s-.01-.05-.02-.06c.01,0,.02.04.02.06h0Z"/>
  </g>
</svg>